<svg width="1746" height="1031" xmlns="http://www.w3.org/2000/svg" xmlns:xlink="http://www.w3.org/1999/xlink" overflow="hidden"><defs><clipPath id="clip0"><rect x="1746" y="224" width="1746" height="1031"/></clipPath><clipPath id="clip1"><rect x="1750" y="226" width="1737" height="1025"/></clipPath><clipPath id="clip2"><rect x="1750" y="226" width="1737" height="1025"/></clipPath><clipPath id="clip3"><rect x="1881" y="277" width="1218" height="871"/></clipPath><clipPath id="clip4"><rect x="1750" y="226" width="1737" height="1025"/></clipPath><clipPath id="clip5"><rect x="1881" y="277" width="1218" height="871"/></clipPath><clipPath id="clip6"><rect x="1750" y="226" width="1737" height="1025"/></clipPath><clipPath id="clip7"><rect x="1881" y="277" width="1218" height="871"/></clipPath><clipPath id="clip8"><rect x="1750" y="226" width="1737" height="1025"/></clipPath><clipPath id="clip9"><rect x="1881" y="277" width="1218" height="871"/></clipPath><clipPath id="clip10"><rect x="1750" y="226" width="1737" height="1025"/></clipPath><clipPath id="clip11"><rect x="1750" y="226" width="1737" height="1025"/></clipPath><clipPath id="clip12"><rect x="1750" y="226" width="1737" height="1025"/></clipPath><clipPath id="clip13"><rect x="1750" y="226" width="1737" height="1025"/></clipPath><clipPath id="clip14"><rect x="1750" y="226" width="1737" height="1025"/></clipPath><clipPath id="clip15"><rect x="1750" y="226" width="1737" height="1025"/></clipPath><clipPath id="clip16"><rect x="1750" y="226" width="1737" height="1025"/></clipPath><clipPath id="clip17"><rect x="1750" y="226" width="1737" height="1025"/></clipPath><clipPath id="clip18"><rect x="1750" y="226" width="1737" height="1025"/></clipPath><clipPath id="clip19"><rect x="1750" y="226" width="1737" height="1025"/></clipPath><clipPath id="clip20"><rect x="1750" y="226" width="1737" height="1025"/></clipPath><clipPath id="clip21"><rect x="1750" y="226" width="1737" height="1025"/></clipPath><clipPath id="clip22"><rect x="1750" y="226" width="1737" height="1025"/></clipPath><clipPath id="clip23"><rect x="1750" y="226" width="1737" height="1025"/></clipPath><clipPath id="clip24"><rect x="1750" y="226" width="1737" height="1025"/></clipPath><clipPath id="clip25"><rect x="1750" y="226" width="1737" height="1025"/></clipPath><clipPath id="clip26"><rect x="1750" y="226" width="1737" height="1025"/></clipPath><clipPath id="clip27"><rect x="1750" y="226" width="1737" height="1025"/></clipPath><clipPath id="clip28"><rect x="1750" y="226" width="1737" height="1025"/></clipPath><clipPath id="clip29"><rect x="1750" y="226" width="1737" height="1025"/></clipPath><clipPath id="clip30"><rect x="1750" y="226" width="1737" height="1025"/></clipPath><clipPath id="clip31"><rect x="1750" y="226" width="1737" height="1025"/></clipPath><clipPath id="clip32"><rect x="1750" y="226" width="1737" height="1025"/></clipPath><clipPath id="clip33"><rect x="1750" y="226" width="1737" height="1025"/></clipPath><clipPath id="clip34"><rect x="1750" y="226" width="1737" height="1025"/></clipPath><clipPath id="clip35"><rect x="1750" y="226" width="1737" height="1025"/></clipPath><clipPath id="clip36"><rect x="1750" y="226" width="1737" height="1025"/></clipPath><clipPath id="clip37"><rect x="1750" y="226" width="1737" height="1025"/></clipPath><clipPath id="clip38"><rect x="1750" y="226" width="1737" height="1025"/></clipPath><clipPath id="clip39"><rect x="1750" y="226" width="1737" height="1025"/></clipPath><clipPath id="clip40"><rect x="1750" y="226" width="1737" height="1025"/></clipPath></defs><g clip-path="url(#clip0)" transform="translate(-1746 -224)"><rect x="1751" y="227" width="1737" height="1024" fill="#FFFFFF" fill-opacity="1"/><g clip-path="url(#clip1)"><path d="M1881.5 971.532 3096.5 971.532M1881.5 797.526 3096.5 797.526M1881.5 624.521 3096.5 624.521M1881.5 450.515 3096.5 450.515M1881.5 277.5 3096.5 277.5" stroke="#D9D9D9" stroke-width="3.4375" stroke-linecap="butt" stroke-linejoin="round" stroke-miterlimit="10" stroke-opacity="1" fill="none" fill-rule="evenodd"/></g><g clip-path="url(#clip2)"><path d="M1881.5 1144.5 3096.5 1144.5" stroke="#D9D9D9" stroke-width="3.4375" stroke-linecap="butt" stroke-linejoin="round" stroke-miterlimit="10" stroke-opacity="1" fill="none" fill-rule="evenodd"/></g><g clip-path="url(#clip3)"><path d="M1932 1027.03 2033.07 1051.03 2135.07 1048.03 2236.07 1051.03 2337.08 1055.03 2438.08 1051.03 2540.08 996 2641.09 1030.03 2742.09 1062.03 2843.09 1076 2944.1 1016.03 3046 1065.03" stroke="#4472C4" stroke-width="10.3125" stroke-linecap="round" stroke-linejoin="round" stroke-miterlimit="10" stroke-opacity="1" fill="none" fill-rule="evenodd"/></g><g clip-path="url(#clip4)"><path d="M1943.33 1026.37C1943.33 1032.45 1938.41 1037.37 1932.33 1037.37 1926.26 1037.37 1921.33 1032.45 1921.33 1026.37 1921.33 1020.3 1926.26 1015.38 1932.33 1015.38 1938.41 1015.38 1943.33 1020.3 1943.33 1026.37Z" stroke="#4472C4" stroke-width="3.4375" stroke-linecap="butt" stroke-linejoin="round" stroke-miterlimit="10" stroke-opacity="1" fill="#4472C4" fill-rule="evenodd" fill-opacity="1"/><path d="M2044.33 1051.37C2044.33 1057.45 2039.41 1062.37 2033.33 1062.37 2027.26 1062.37 2022.33 1057.45 2022.33 1051.37 2022.33 1045.3 2027.26 1040.38 2033.33 1040.38 2039.41 1040.38 2044.33 1045.3 2044.33 1051.37Z" stroke="#4472C4" stroke-width="3.4375" stroke-linecap="butt" stroke-linejoin="round" stroke-miterlimit="10" stroke-opacity="1" fill="#4472C4" fill-rule="evenodd" fill-opacity="1"/><path d="M2145.33 1047.37C2145.33 1053.45 2140.41 1058.37 2134.33 1058.37 2128.26 1058.37 2123.33 1053.45 2123.33 1047.37 2123.33 1041.3 2128.26 1036.38 2134.33 1036.38 2140.41 1036.38 2145.33 1041.3 2145.33 1047.37Z" stroke="#4472C4" stroke-width="3.4375" stroke-linecap="butt" stroke-linejoin="round" stroke-miterlimit="10" stroke-opacity="1" fill="#4472C4" fill-rule="evenodd" fill-opacity="1"/><path d="M2246.33 1051.37C2246.33 1057.45 2241.41 1062.37 2235.33 1062.37 2229.26 1062.37 2224.33 1057.45 2224.33 1051.37 2224.33 1045.3 2229.26 1040.38 2235.33 1040.38 2241.41 1040.38 2246.33 1045.3 2246.33 1051.37Z" stroke="#4472C4" stroke-width="3.4375" stroke-linecap="butt" stroke-linejoin="round" stroke-miterlimit="10" stroke-opacity="1" fill="#4472C4" fill-rule="evenodd" fill-opacity="1"/><path d="M2348.33 1054.38C2348.33 1060.45 2343.41 1065.37 2337.33 1065.37 2331.26 1065.37 2326.33 1060.45 2326.33 1054.38 2326.33 1048.3 2331.26 1043.38 2337.33 1043.38 2343.41 1043.38 2348.33 1048.3 2348.33 1054.38Z" stroke="#4472C4" stroke-width="3.4375" stroke-linecap="butt" stroke-linejoin="round" stroke-miterlimit="10" stroke-opacity="1" fill="#4472C4" fill-rule="evenodd" fill-opacity="1"/><path d="M2449.33 1051.37C2449.33 1057.45 2444.41 1062.37 2438.33 1062.37 2432.26 1062.37 2427.33 1057.45 2427.33 1051.37 2427.33 1045.3 2432.26 1040.38 2438.33 1040.38 2444.41 1040.38 2449.33 1045.3 2449.33 1051.37Z" stroke="#4472C4" stroke-width="3.4375" stroke-linecap="butt" stroke-linejoin="round" stroke-miterlimit="10" stroke-opacity="1" fill="#4472C4" fill-rule="evenodd" fill-opacity="1"/><path d="M2550.33 995.375C2550.33 1001.45 2545.41 1006.37 2539.33 1006.37 2533.26 1006.37 2528.33 1001.45 2528.33 995.375 2528.33 989.3 2533.26 984.375 2539.33 984.375 2545.41 984.375 2550.33 989.3 2550.33 995.375Z" stroke="#4472C4" stroke-width="3.4375" stroke-linecap="butt" stroke-linejoin="round" stroke-miterlimit="10" stroke-opacity="1" fill="#4472C4" fill-rule="evenodd" fill-opacity="1"/><path d="M2651.33 1030.37C2651.33 1036.45 2646.41 1041.37 2640.33 1041.37 2634.26 1041.37 2629.33 1036.45 2629.33 1030.37 2629.33 1024.3 2634.26 1019.38 2640.33 1019.38 2646.41 1019.38 2651.33 1024.3 2651.33 1030.37Z" stroke="#4472C4" stroke-width="3.4375" stroke-linecap="butt" stroke-linejoin="round" stroke-miterlimit="10" stroke-opacity="1" fill="#4472C4" fill-rule="evenodd" fill-opacity="1"/><path d="M2753.33 1061.37C2753.33 1067.45 2748.41 1072.37 2742.33 1072.37 2736.26 1072.37 2731.33 1067.45 2731.33 1061.37 2731.33 1055.3 2736.26 1050.38 2742.33 1050.38 2748.41 1050.38 2753.33 1055.3 2753.33 1061.37Z" stroke="#4472C4" stroke-width="3.4375" stroke-linecap="butt" stroke-linejoin="round" stroke-miterlimit="10" stroke-opacity="1" fill="#4472C4" fill-rule="evenodd" fill-opacity="1"/><path d="M2854.33 1075.37C2854.33 1081.45 2849.41 1086.37 2843.33 1086.37 2837.26 1086.37 2832.33 1081.45 2832.33 1075.37 2832.33 1069.3 2837.26 1064.38 2843.33 1064.38 2849.41 1064.38 2854.33 1069.3 2854.33 1075.37Z" stroke="#4472C4" stroke-width="3.4375" stroke-linecap="butt" stroke-linejoin="round" stroke-miterlimit="10" stroke-opacity="1" fill="#4472C4" fill-rule="evenodd" fill-opacity="1"/><path d="M2955.33 1016.37C2955.33 1022.45 2950.41 1027.37 2944.33 1027.37 2938.26 1027.37 2933.33 1022.45 2933.33 1016.37 2933.33 1010.3 2938.26 1005.38 2944.33 1005.38 2950.41 1005.38 2955.33 1010.3 2955.33 1016.37Z" stroke="#4472C4" stroke-width="3.4375" stroke-linecap="butt" stroke-linejoin="round" stroke-miterlimit="10" stroke-opacity="1" fill="#4472C4" fill-rule="evenodd" fill-opacity="1"/><path d="M3056.33 1065.38C3056.33 1071.45 3051.41 1076.37 3045.33 1076.37 3039.26 1076.37 3034.33 1071.45 3034.33 1065.38 3034.33 1059.3 3039.26 1054.38 3045.33 1054.38 3051.41 1054.38 3056.33 1059.3 3056.33 1065.38Z" stroke="#4472C4" stroke-width="3.4375" stroke-linecap="butt" stroke-linejoin="round" stroke-miterlimit="10" stroke-opacity="1" fill="#4472C4" fill-rule="evenodd" fill-opacity="1"/></g><g clip-path="url(#clip5)"><path d="M1932 628.021 2033.07 777.025 2135.07 770.025 2236.07 791 2337.08 708.023 2438.08 635.021 2540.08 624 2641.09 680.022 2742.09 704.023 2843.09 628.021 2944.1 749.025 3046 735.024" stroke="#ED7D31" stroke-width="10.3125" stroke-linecap="round" stroke-linejoin="round" stroke-miterlimit="10" stroke-opacity="1" fill="none" fill-rule="evenodd"/></g><g clip-path="url(#clip6)"><path d="M1943.33 627.375C1943.33 633.45 1938.41 638.375 1932.33 638.375 1926.26 638.375 1921.33 633.45 1921.33 627.375 1921.33 621.3 1926.26 616.375 1932.33 616.375 1938.41 616.375 1943.33 621.3 1943.33 627.375Z" stroke="#ED7D31" stroke-width="3.4375" stroke-linecap="butt" stroke-linejoin="round" stroke-miterlimit="10" stroke-opacity="1" fill="#ED7D31" fill-rule="evenodd" fill-opacity="1"/><path d="M2044.33 777.375C2044.33 783.45 2039.41 788.374 2033.33 788.374 2027.26 788.374 2022.33 783.45 2022.33 777.375 2022.33 771.3 2027.26 766.375 2033.33 766.375 2039.41 766.375 2044.33 771.3 2044.33 777.375Z" stroke="#ED7D31" stroke-width="3.4375" stroke-linecap="butt" stroke-linejoin="round" stroke-miterlimit="10" stroke-opacity="1" fill="#ED7D31" fill-rule="evenodd" fill-opacity="1"/><path d="M2145.33 770.375C2145.33 776.45 2140.41 781.375 2134.33 781.375 2128.26 781.375 2123.33 776.45 2123.33 770.375 2123.33 764.3 2128.26 759.375 2134.33 759.375 2140.41 759.375 2145.33 764.3 2145.33 770.375Z" stroke="#ED7D31" stroke-width="3.4375" stroke-linecap="butt" stroke-linejoin="round" stroke-miterlimit="10" stroke-opacity="1" fill="#ED7D31" fill-rule="evenodd" fill-opacity="1"/><path d="M2246.33 790.375C2246.33 796.45 2241.41 801.375 2235.33 801.375 2229.26 801.375 2224.33 796.45 2224.33 790.375 2224.33 784.3 2229.26 779.375 2235.33 779.375 2241.41 779.375 2246.33 784.3 2246.33 790.375Z" stroke="#ED7D31" stroke-width="3.4375" stroke-linecap="butt" stroke-linejoin="round" stroke-miterlimit="10" stroke-opacity="1" fill="#ED7D31" fill-rule="evenodd" fill-opacity="1"/><path d="M2348.33 707.375C2348.33 713.45 2343.41 718.374 2337.33 718.374 2331.26 718.374 2326.33 713.45 2326.33 707.375 2326.33 701.3 2331.26 696.375 2337.33 696.375 2343.41 696.375 2348.33 701.3 2348.33 707.375Z" stroke="#ED7D31" stroke-width="3.4375" stroke-linecap="butt" stroke-linejoin="round" stroke-miterlimit="10" stroke-opacity="1" fill="#ED7D31" fill-rule="evenodd" fill-opacity="1"/><path d="M2449.33 634.375C2449.33 640.45 2444.41 645.374 2438.33 645.374 2432.26 645.374 2427.33 640.45 2427.33 634.375 2427.33 628.3 2432.26 623.375 2438.33 623.375 2444.41 623.375 2449.33 628.3 2449.33 634.375Z" stroke="#ED7D31" stroke-width="3.4375" stroke-linecap="butt" stroke-linejoin="round" stroke-miterlimit="10" stroke-opacity="1" fill="#ED7D31" fill-rule="evenodd" fill-opacity="1"/><path d="M2550.33 624.375C2550.33 630.45 2545.41 635.375 2539.33 635.375 2533.26 635.375 2528.33 630.45 2528.33 624.375 2528.33 618.3 2533.26 613.375 2539.33 613.375 2545.41 613.375 2550.33 618.3 2550.33 624.375Z" stroke="#ED7D31" stroke-width="3.4375" stroke-linecap="butt" stroke-linejoin="round" stroke-miterlimit="10" stroke-opacity="1" fill="#ED7D31" fill-rule="evenodd" fill-opacity="1"/><path d="M2651.33 679.375C2651.33 685.45 2646.41 690.375 2640.33 690.375 2634.26 690.375 2629.33 685.45 2629.33 679.375 2629.33 673.3 2634.26 668.375 2640.33 668.375 2646.41 668.375 2651.33 673.3 2651.33 679.375Z" stroke="#ED7D31" stroke-width="3.4375" stroke-linecap="butt" stroke-linejoin="round" stroke-miterlimit="10" stroke-opacity="1" fill="#ED7D31" fill-rule="evenodd" fill-opacity="1"/><path d="M2753.33 704.375C2753.33 710.45 2748.41 715.375 2742.33 715.375 2736.26 715.375 2731.33 710.45 2731.33 704.375 2731.33 698.3 2736.26 693.375 2742.33 693.375 2748.41 693.375 2753.33 698.3 2753.33 704.375Z" stroke="#ED7D31" stroke-width="3.4375" stroke-linecap="butt" stroke-linejoin="round" stroke-miterlimit="10" stroke-opacity="1" fill="#ED7D31" fill-rule="evenodd" fill-opacity="1"/><path d="M2854.33 627.375C2854.33 633.45 2849.41 638.375 2843.33 638.375 2837.26 638.375 2832.33 633.45 2832.33 627.375 2832.33 621.3 2837.26 616.375 2843.33 616.375 2849.41 616.375 2854.33 621.3 2854.33 627.375Z" stroke="#ED7D31" stroke-width="3.4375" stroke-linecap="butt" stroke-linejoin="round" stroke-miterlimit="10" stroke-opacity="1" fill="#ED7D31" fill-rule="evenodd" fill-opacity="1"/><path d="M2955.33 749.375C2955.33 755.45 2950.41 760.374 2944.33 760.374 2938.26 760.374 2933.33 755.45 2933.33 749.375 2933.33 743.3 2938.26 738.375 2944.33 738.375 2950.41 738.375 2955.33 743.3 2955.33 749.375Z" stroke="#ED7D31" stroke-width="3.4375" stroke-linecap="butt" stroke-linejoin="round" stroke-miterlimit="10" stroke-opacity="1" fill="#ED7D31" fill-rule="evenodd" fill-opacity="1"/><path d="M3056.33 735.375C3056.33 741.45 3051.41 746.375 3045.33 746.375 3039.26 746.375 3034.33 741.45 3034.33 735.375 3034.33 729.3 3039.26 724.375 3045.33 724.375 3051.41 724.375 3056.33 729.3 3056.33 735.375Z" stroke="#ED7D31" stroke-width="3.4375" stroke-linecap="butt" stroke-linejoin="round" stroke-miterlimit="10" stroke-opacity="1" fill="#ED7D31" fill-rule="evenodd" fill-opacity="1"/></g><g clip-path="url(#clip7)"><path d="M1932 1138 2033.07 1082.04 2135 1041" stroke="#A5A5A5" stroke-width="10.3125" stroke-linecap="round" stroke-linejoin="round" stroke-miterlimit="10" stroke-opacity="1" fill="none" fill-rule="evenodd"/></g><g clip-path="url(#clip8)"><path d="M1943.33 1137.37C1943.33 1143.45 1938.41 1148.37 1932.33 1148.37 1926.26 1148.37 1921.33 1143.45 1921.33 1137.37 1921.33 1131.3 1926.26 1126.38 1932.33 1126.38 1938.41 1126.38 1943.33 1131.3 1943.33 1137.37Z" stroke="#A5A5A5" stroke-width="3.4375" stroke-linecap="butt" stroke-linejoin="round" stroke-miterlimit="10" stroke-opacity="1" fill="#A5A5A5" fill-rule="evenodd" fill-opacity="1"/><path d="M2044.33 1082.37C2044.33 1088.45 2039.41 1093.37 2033.33 1093.37 2027.26 1093.37 2022.33 1088.45 2022.33 1082.37 2022.33 1076.3 2027.26 1071.38 2033.33 1071.38 2039.41 1071.38 2044.33 1076.3 2044.33 1082.37Z" stroke="#A5A5A5" stroke-width="3.4375" stroke-linecap="butt" stroke-linejoin="round" stroke-miterlimit="10" stroke-opacity="1" fill="#A5A5A5" fill-rule="evenodd" fill-opacity="1"/><path d="M2145.33 1040.37C2145.33 1046.45 2140.41 1051.37 2134.33 1051.37 2128.26 1051.37 2123.33 1046.45 2123.33 1040.37 2123.33 1034.3 2128.26 1029.38 2134.33 1029.38 2140.41 1029.38 2145.33 1034.3 2145.33 1040.37Z" stroke="#A5A5A5" stroke-width="3.4375" stroke-linecap="butt" stroke-linejoin="round" stroke-miterlimit="10" stroke-opacity="1" fill="#A5A5A5" fill-rule="evenodd" fill-opacity="1"/></g><g clip-path="url(#clip9)"><path d="M1932 513.017 2033.07 444.015 2135.07 520.017 2236.07 479.016 2337.08 333 2438.08 413.014 2540.08 472.015 2641.09 569.019 2742.09 635.021 2843.09 510.017 2944.1 510.017 3046 760" stroke="#FFC000" stroke-width="10.3125" stroke-linecap="round" stroke-linejoin="round" stroke-miterlimit="10" stroke-opacity="1" fill="none" fill-rule="evenodd"/></g><g clip-path="url(#clip10)"><path d="M1943.33 513.375C1943.33 519.45 1938.41 524.374 1932.33 524.374 1926.26 524.374 1921.33 519.45 1921.33 513.375 1921.33 507.3 1926.26 502.375 1932.33 502.375 1938.41 502.375 1943.33 507.3 1943.33 513.375Z" stroke="#FFC000" stroke-width="3.4375" stroke-linecap="butt" stroke-linejoin="round" stroke-miterlimit="10" stroke-opacity="1" fill="#FFC000" fill-rule="evenodd" fill-opacity="1"/><path d="M2044.33 443.375C2044.33 449.45 2039.41 454.374 2033.33 454.374 2027.26 454.374 2022.33 449.45 2022.33 443.375 2022.33 437.3 2027.26 432.375 2033.33 432.375 2039.41 432.375 2044.33 437.3 2044.33 443.375Z" stroke="#FFC000" stroke-width="3.4375" stroke-linecap="butt" stroke-linejoin="round" stroke-miterlimit="10" stroke-opacity="1" fill="#FFC000" fill-rule="evenodd" fill-opacity="1"/><path d="M2145.33 520.375C2145.33 526.45 2140.41 531.374 2134.33 531.374 2128.26 531.374 2123.33 526.45 2123.33 520.375 2123.33 514.3 2128.26 509.375 2134.33 509.375 2140.41 509.375 2145.33 514.3 2145.33 520.375Z" stroke="#FFC000" stroke-width="3.4375" stroke-linecap="butt" stroke-linejoin="round" stroke-miterlimit="10" stroke-opacity="1" fill="#FFC000" fill-rule="evenodd" fill-opacity="1"/><path d="M2246.33 478.375C2246.33 484.45 2241.41 489.374 2235.33 489.374 2229.26 489.374 2224.33 484.45 2224.33 478.375 2224.33 472.3 2229.26 467.375 2235.33 467.375 2241.41 467.375 2246.33 472.3 2246.33 478.375Z" stroke="#FFC000" stroke-width="3.4375" stroke-linecap="butt" stroke-linejoin="round" stroke-miterlimit="10" stroke-opacity="1" fill="#FFC000" fill-rule="evenodd" fill-opacity="1"/><path d="M2348.33 332.375C2348.33 338.45 2343.41 343.374 2337.33 343.374 2331.26 343.374 2326.33 338.45 2326.33 332.375 2326.33 326.3 2331.26 321.375 2337.33 321.375 2343.41 321.375 2348.33 326.3 2348.33 332.375Z" stroke="#FFC000" stroke-width="3.4375" stroke-linecap="butt" stroke-linejoin="round" stroke-miterlimit="10" stroke-opacity="1" fill="#FFC000" fill-rule="evenodd" fill-opacity="1"/><path d="M2449.33 412.375C2449.33 418.45 2444.41 423.374 2438.33 423.374 2432.26 423.374 2427.33 418.45 2427.33 412.375 2427.33 406.3 2432.26 401.375 2438.33 401.375 2444.41 401.375 2449.33 406.3 2449.33 412.375Z" stroke="#FFC000" stroke-width="3.4375" stroke-linecap="butt" stroke-linejoin="round" stroke-miterlimit="10" stroke-opacity="1" fill="#FFC000" fill-rule="evenodd" fill-opacity="1"/><path d="M2550.33 471.375C2550.33 477.45 2545.41 482.375 2539.33 482.375 2533.26 482.375 2528.33 477.45 2528.33 471.375 2528.33 465.3 2533.26 460.375 2539.33 460.375 2545.41 460.375 2550.33 465.3 2550.33 471.375Z" stroke="#FFC000" stroke-width="3.4375" stroke-linecap="butt" stroke-linejoin="round" stroke-miterlimit="10" stroke-opacity="1" fill="#FFC000" fill-rule="evenodd" fill-opacity="1"/><path d="M2651.33 568.375C2651.33 574.45 2646.41 579.374 2640.33 579.374 2634.26 579.374 2629.33 574.45 2629.33 568.375 2629.33 562.3 2634.26 557.375 2640.33 557.375 2646.41 557.375 2651.33 562.3 2651.33 568.375Z" stroke="#FFC000" stroke-width="3.4375" stroke-linecap="butt" stroke-linejoin="round" stroke-miterlimit="10" stroke-opacity="1" fill="#FFC000" fill-rule="evenodd" fill-opacity="1"/><path d="M2753.33 634.375C2753.33 640.45 2748.41 645.374 2742.33 645.374 2736.26 645.374 2731.33 640.45 2731.33 634.375 2731.33 628.3 2736.26 623.375 2742.33 623.375 2748.41 623.375 2753.33 628.3 2753.33 634.375Z" stroke="#FFC000" stroke-width="3.4375" stroke-linecap="butt" stroke-linejoin="round" stroke-miterlimit="10" stroke-opacity="1" fill="#FFC000" fill-rule="evenodd" fill-opacity="1"/><path d="M2854.33 509.375C2854.33 515.45 2849.41 520.374 2843.33 520.374 2837.26 520.374 2832.33 515.45 2832.33 509.375 2832.33 503.3 2837.26 498.375 2843.33 498.375 2849.41 498.375 2854.33 503.3 2854.33 509.375Z" stroke="#FFC000" stroke-width="3.4375" stroke-linecap="butt" stroke-linejoin="round" stroke-miterlimit="10" stroke-opacity="1" fill="#FFC000" fill-rule="evenodd" fill-opacity="1"/><path d="M2955.33 509.375C2955.33 515.45 2950.41 520.374 2944.33 520.374 2938.26 520.374 2933.33 515.45 2933.33 509.375 2933.33 503.3 2938.26 498.375 2944.33 498.375 2950.41 498.375 2955.33 503.3 2955.33 509.375Z" stroke="#FFC000" stroke-width="3.4375" stroke-linecap="butt" stroke-linejoin="round" stroke-miterlimit="10" stroke-opacity="1" fill="#FFC000" fill-rule="evenodd" fill-opacity="1"/><path d="M3056.33 759.375C3056.33 765.45 3051.41 770.375 3045.33 770.375 3039.26 770.375 3034.33 765.45 3034.33 759.375 3034.33 753.3 3039.26 748.375 3045.33 748.375 3051.41 748.375 3056.33 753.3 3056.33 759.375Z" stroke="#FFC000" stroke-width="3.4375" stroke-linecap="butt" stroke-linejoin="round" stroke-miterlimit="10" stroke-opacity="1" fill="#FFC000" fill-rule="evenodd" fill-opacity="1"/></g><g clip-path="url(#clip11)"><text fill="#595959" fill-opacity="1" font-family="Calibri,Calibri_MSFontService,sans-serif" font-style="normal" font-variant="normal" font-weight="400" font-stretch="normal" font-size="41" text-anchor="start" direction="ltr" writing-mode="lr-tb" unicode-bidi="normal" text-decoration="none" transform="matrix(1 0 0 1 1822.42 1155)">0</text></g><g clip-path="url(#clip12)"><text fill="#595959" fill-opacity="1" font-family="Calibri,Calibri_MSFontService,sans-serif" font-style="normal" font-variant="normal" font-weight="400" font-stretch="normal" font-size="41" text-anchor="start" direction="ltr" writing-mode="lr-tb" unicode-bidi="normal" text-decoration="none" transform="matrix(1 0 0 1 1801.52 981)">50</text></g><g clip-path="url(#clip13)"><text fill="#595959" fill-opacity="1" font-family="Calibri,Calibri_MSFontService,sans-serif" font-style="normal" font-variant="normal" font-weight="400" font-stretch="normal" font-size="41" text-anchor="start" direction="ltr" writing-mode="lr-tb" unicode-bidi="normal" text-decoration="none" transform="matrix(1 0 0 1 1780.62 808)">100</text></g><g clip-path="url(#clip14)"><text fill="#595959" fill-opacity="1" font-family="Calibri,Calibri_MSFontService,sans-serif" font-style="normal" font-variant="normal" font-weight="400" font-stretch="normal" font-size="41" text-anchor="start" direction="ltr" writing-mode="lr-tb" unicode-bidi="normal" text-decoration="none" transform="matrix(1 0 0 1 1780.62 634)">150</text></g><g clip-path="url(#clip15)"><text fill="#595959" fill-opacity="1" font-family="Calibri,Calibri_MSFontService,sans-serif" font-style="normal" font-variant="normal" font-weight="400" font-stretch="normal" font-size="41" text-anchor="start" direction="ltr" writing-mode="lr-tb" unicode-bidi="normal" text-decoration="none" transform="matrix(1 0 0 1 1780.62 461)">200</text></g><g clip-path="url(#clip16)"><text fill="#595959" fill-opacity="1" font-family="Calibri,Calibri_MSFontService,sans-serif" font-style="normal" font-variant="normal" font-weight="400" font-stretch="normal" font-size="41" text-anchor="start" direction="ltr" writing-mode="lr-tb" unicode-bidi="normal" text-decoration="none" transform="matrix(1 0 0 1 1780.62 287)">250</text></g><g clip-path="url(#clip17)"><text fill="#595959" fill-opacity="1" font-family="Calibri,Calibri_MSFontService,sans-serif" font-style="normal" font-variant="normal" font-weight="400" font-stretch="normal" font-size="41" text-anchor="start" direction="ltr" writing-mode="lr-tb" unicode-bidi="normal" text-decoration="none" transform="matrix(1 0 0 1 1904.92 1210)">Jan</text></g><g clip-path="url(#clip18)"><text fill="#595959" fill-opacity="1" font-family="Calibri,Calibri_MSFontService,sans-serif" font-style="normal" font-variant="normal" font-weight="400" font-stretch="normal" font-size="41" text-anchor="start" direction="ltr" writing-mode="lr-tb" unicode-bidi="normal" text-decoration="none" transform="matrix(1 0 0 1 2002.86 1210)">Feb</text></g><g clip-path="url(#clip19)"><text fill="#595959" fill-opacity="1" font-family="Calibri,Calibri_MSFontService,sans-serif" font-style="normal" font-variant="normal" font-weight="400" font-stretch="normal" font-size="41" text-anchor="start" direction="ltr" writing-mode="lr-tb" unicode-bidi="normal" text-decoration="none" transform="matrix(1 0 0 1 2099.97 1210)">Mar</text></g><g clip-path="url(#clip20)"><text fill="#595959" fill-opacity="1" font-family="Calibri,Calibri_MSFontService,sans-serif" font-style="normal" font-variant="normal" font-weight="400" font-stretch="normal" font-size="41" text-anchor="start" direction="ltr" writing-mode="lr-tb" unicode-bidi="normal" text-decoration="none" transform="matrix(1 0 0 1 2205.94 1210)">Apr</text></g><g clip-path="url(#clip21)"><text fill="#595959" fill-opacity="1" font-family="Calibri,Calibri_MSFontService,sans-serif" font-style="normal" font-variant="normal" font-weight="400" font-stretch="normal" font-size="41" text-anchor="start" direction="ltr" writing-mode="lr-tb" unicode-bidi="normal" text-decoration="none" transform="matrix(1 0 0 1 2300.3 1210)">May</text></g><g clip-path="url(#clip22)"><text fill="#595959" fill-opacity="1" font-family="Calibri,Calibri_MSFontService,sans-serif" font-style="normal" font-variant="normal" font-weight="400" font-stretch="normal" font-size="41" text-anchor="start" direction="ltr" writing-mode="lr-tb" unicode-bidi="normal" text-decoration="none" transform="matrix(1 0 0 1 2410.13 1210)">Jun</text></g><g clip-path="url(#clip23)"><text fill="#595959" fill-opacity="1" font-family="Calibri,Calibri_MSFontService,sans-serif" font-style="normal" font-variant="normal" font-weight="400" font-stretch="normal" font-size="41" text-anchor="start" direction="ltr" writing-mode="lr-tb" unicode-bidi="normal" text-decoration="none" transform="matrix(1 0 0 1 2517.47 1210)">Jul</text></g><g clip-path="url(#clip24)"><text fill="#595959" fill-opacity="1" font-family="Calibri,Calibri_MSFontService,sans-serif" font-style="normal" font-variant="normal" font-weight="400" font-stretch="normal" font-size="41" text-anchor="start" direction="ltr" writing-mode="lr-tb" unicode-bidi="normal" text-decoration="none" transform="matrix(1 0 0 1 2608.37 1210)">Aug</text></g><g clip-path="url(#clip25)"><text fill="#595959" fill-opacity="1" font-family="Calibri,Calibri_MSFontService,sans-serif" font-style="normal" font-variant="normal" font-weight="400" font-stretch="normal" font-size="41" text-anchor="start" direction="ltr" writing-mode="lr-tb" unicode-bidi="normal" text-decoration="none" transform="matrix(1 0 0 1 2711.5 1210)">Sep</text></g><g clip-path="url(#clip26)"><text fill="#595959" fill-opacity="1" font-family="Calibri,Calibri_MSFontService,sans-serif" font-style="normal" font-variant="normal" font-weight="400" font-stretch="normal" font-size="41" text-anchor="start" direction="ltr" writing-mode="lr-tb" unicode-bidi="normal" text-decoration="none" transform="matrix(1 0 0 1 2814.03 1210)">Oct</text></g><g clip-path="url(#clip27)"><text fill="#595959" fill-opacity="1" font-family="Calibri,Calibri_MSFontService,sans-serif" font-style="normal" font-variant="normal" font-weight="400" font-stretch="normal" font-size="41" text-anchor="start" direction="ltr" writing-mode="lr-tb" unicode-bidi="normal" text-decoration="none" transform="matrix(1 0 0 1 2911.05 1210)">Nov</text></g><g clip-path="url(#clip28)"><text fill="#595959" fill-opacity="1" font-family="Calibri,Calibri_MSFontService,sans-serif" font-style="normal" font-variant="normal" font-weight="400" font-stretch="normal" font-size="41" text-anchor="start" direction="ltr" writing-mode="lr-tb" unicode-bidi="normal" text-decoration="none" transform="matrix(1 0 0 1 3014.12 1210)">Dec</text></g><g clip-path="url(#clip29)"><path d="M3168 625 3256 625" stroke="#4472C4" stroke-width="10.3125" stroke-linecap="round" stroke-linejoin="round" stroke-miterlimit="10" stroke-opacity="1" fill="none" fill-rule="evenodd"/></g><g clip-path="url(#clip30)"><path d="M3223.02 624C3223.02 630.075 3218.31 635 3212.5 635 3206.69 635 3201.98 630.075 3201.98 624 3201.98 617.925 3206.69 613 3212.5 613 3218.31 613 3223.02 617.925 3223.02 624Z" stroke="#4472C4" stroke-width="3.4375" stroke-linecap="butt" stroke-linejoin="round" stroke-miterlimit="10" stroke-opacity="1" fill="#4472C4" fill-rule="evenodd" fill-opacity="1"/></g><g clip-path="url(#clip31)"><text fill="#595959" fill-opacity="1" font-family="Calibri,Calibri_MSFontService,sans-serif" font-style="normal" font-variant="normal" font-weight="400" font-stretch="normal" font-size="41" text-anchor="start" direction="ltr" writing-mode="lr-tb" unicode-bidi="normal" text-decoration="none" transform="matrix(1 0 0 1 3265.42 635)">canceled</text></g><g clip-path="url(#clip32)"><path d="M3168 702 3256 702" stroke="#ED7D31" stroke-width="10.3125" stroke-linecap="round" stroke-linejoin="round" stroke-miterlimit="10" stroke-opacity="1" fill="none" fill-rule="evenodd"/></g><g clip-path="url(#clip33)"><path d="M3223.02 702C3223.02 708.075 3218.31 713 3212.5 713 3206.69 713 3201.98 708.075 3201.98 702 3201.98 695.925 3206.69 691 3212.5 691 3218.31 691 3223.02 695.925 3223.02 702Z" stroke="#ED7D31" stroke-width="3.4375" stroke-linecap="butt" stroke-linejoin="round" stroke-miterlimit="10" stroke-opacity="1" fill="#ED7D31" fill-rule="evenodd" fill-opacity="1"/></g><g clip-path="url(#clip34)"><text fill="#595959" fill-opacity="1" font-family="Calibri,Calibri_MSFontService,sans-serif" font-style="normal" font-variant="normal" font-weight="400" font-stretch="normal" font-size="41" text-anchor="start" direction="ltr" writing-mode="lr-tb" unicode-bidi="normal" text-decoration="none" transform="matrix(1 0 0 1 3265.42 712)">failed</text></g><g clip-path="url(#clip35)"><path d="M3168 779 3256 779" stroke="#A5A5A5" stroke-width="10.3125" stroke-linecap="round" stroke-linejoin="round" stroke-miterlimit="10" stroke-opacity="1" fill="none" fill-rule="evenodd"/></g><g clip-path="url(#clip36)"><path d="M3223.02 779C3223.02 785.075 3218.31 790 3212.5 790 3206.69 790 3201.98 785.075 3201.98 779 3201.98 772.925 3206.69 768 3212.5 768 3218.31 768 3223.02 772.925 3223.02 779Z" stroke="#A5A5A5" stroke-width="3.4375" stroke-linecap="butt" stroke-linejoin="round" stroke-miterlimit="10" stroke-opacity="1" fill="#A5A5A5" fill-rule="evenodd" fill-opacity="1"/></g><g clip-path="url(#clip37)"><text fill="#595959" fill-opacity="1" font-family="Calibri,Calibri_MSFontService,sans-serif" font-style="normal" font-variant="normal" font-weight="400" font-stretch="normal" font-size="41" text-anchor="start" direction="ltr" writing-mode="lr-tb" unicode-bidi="normal" text-decoration="none" transform="matrix(1 0 0 1 3265.42 790)">live</text></g><g clip-path="url(#clip38)"><path d="M3168 857 3256 857" stroke="#FFC000" stroke-width="10.3125" stroke-linecap="round" stroke-linejoin="round" stroke-miterlimit="10" stroke-opacity="1" fill="none" fill-rule="evenodd"/></g><g clip-path="url(#clip39)"><path d="M3223.02 856C3223.02 862.075 3218.31 867 3212.5 867 3206.69 867 3201.98 862.075 3201.98 856 3201.98 849.925 3206.69 845 3212.5 845 3218.31 845 3223.02 849.925 3223.02 856Z" stroke="#FFC000" stroke-width="3.4375" stroke-linecap="butt" stroke-linejoin="round" stroke-miterlimit="10" stroke-opacity="1" fill="#FFC000" fill-rule="evenodd" fill-opacity="1"/></g><g clip-path="url(#clip40)"><text fill="#595959" fill-opacity="1" font-family="Calibri,Calibri_MSFontService,sans-serif" font-style="normal" font-variant="normal" font-weight="400" font-stretch="normal" font-size="41" text-anchor="start" direction="ltr" writing-mode="lr-tb" unicode-bidi="normal" text-decoration="none" transform="matrix(1 0 0 1 3265.42 867)">successful</text></g><rect x="1751.5" y="227.5" width="1737" height="1024" stroke="#D9D9D9" stroke-width="3.4375" stroke-linecap="butt" stroke-linejoin="round" stroke-miterlimit="10" stroke-opacity="1" fill="none"/></g></svg>