<svg width="2306" height="1375" xmlns="http://www.w3.org/2000/svg" xmlns:xlink="http://www.w3.org/1999/xlink" overflow="hidden"><defs><clipPath id="clip0"><rect x="1113" y="187" width="2306" height="1375"/></clipPath><clipPath id="clip1"><rect x="1118" y="192" width="2296" height="1366"/></clipPath><clipPath id="clip2"><rect x="1249" y="362" width="1926" height="846"/></clipPath><clipPath id="clip3"><rect x="1118" y="192" width="2296" height="1366"/></clipPath><clipPath id="clip4"><rect x="1118" y="192" width="2296" height="1366"/></clipPath><clipPath id="clip5"><rect x="1118" y="192" width="2296" height="1366"/></clipPath><clipPath id="clip6"><rect x="1118" y="192" width="2296" height="1366"/></clipPath><clipPath id="clip7"><rect x="1118" y="192" width="2296" height="1366"/></clipPath><clipPath id="clip8"><rect x="1118" y="192" width="2296" height="1366"/></clipPath><clipPath id="clip9"><rect x="1118" y="192" width="2296" height="1366"/></clipPath><clipPath id="clip10"><rect x="1118" y="192" width="2296" height="1366"/></clipPath><clipPath id="clip11"><rect x="1118" y="192" width="2296" height="1366"/></clipPath><clipPath id="clip12"><rect x="1118" y="192" width="2296" height="1366"/></clipPath><clipPath id="clip13"><rect x="1118" y="192" width="2296" height="1366"/></clipPath><clipPath id="clip14"><rect x="1118" y="192" width="2296" height="1366"/></clipPath><clipPath id="clip15"><rect x="1118" y="192" width="2296" height="1366"/></clipPath><clipPath id="clip16"><rect x="1118" y="192" width="2296" height="1366"/></clipPath><clipPath id="clip17"><rect x="1118" y="192" width="2296" height="1366"/></clipPath><clipPath id="clip18"><rect x="1118" y="192" width="2296" height="1366"/></clipPath><clipPath id="clip19"><rect x="1118" y="192" width="2296" height="1366"/></clipPath><clipPath id="clip20"><rect x="1118" y="192" width="2296" height="1366"/></clipPath><clipPath id="clip21"><rect x="1118" y="192" width="2296" height="1366"/></clipPath><clipPath id="clip22"><rect x="1118" y="192" width="2296" height="1366"/></clipPath><clipPath id="clip23"><rect x="1118" y="192" width="2296" height="1366"/></clipPath><clipPath id="clip24"><rect x="1118" y="192" width="2296" height="1366"/></clipPath><clipPath id="clip25"><rect x="1118" y="192" width="2296" height="1366"/></clipPath><clipPath id="clip26"><rect x="1118" y="192" width="2296" height="1366"/></clipPath><clipPath id="clip27"><rect x="1118" y="192" width="2296" height="1366"/></clipPath><clipPath id="clip28"><rect x="1118" y="192" width="2296" height="1366"/></clipPath><clipPath id="clip29"><rect x="1118" y="192" width="2296" height="1366"/></clipPath><clipPath id="clip30"><rect x="1118" y="192" width="2296" height="1366"/></clipPath><clipPath id="clip31"><rect x="1118" y="192" width="2296" height="1366"/></clipPath><clipPath id="clip32"><rect x="1118" y="192" width="2296" height="1366"/></clipPath><clipPath id="clip33"><rect x="1118" y="192" width="2296" height="1366"/></clipPath><clipPath id="clip34"><rect x="1118" y="192" width="2296" height="1366"/></clipPath><clipPath id="clip35"><rect x="1118" y="192" width="2296" height="1366"/></clipPath><clipPath id="clip36"><rect x="1118" y="192" width="2296" height="1366"/></clipPath><clipPath id="clip37"><rect x="1118" y="192" width="2296" height="1366"/></clipPath><clipPath id="clip38"><rect x="1118" y="192" width="2296" height="1366"/></clipPath><clipPath id="clip39"><rect x="1118" y="192" width="2296" height="1366"/></clipPath><clipPath id="clip40"><rect x="1118" y="192" width="2296" height="1366"/></clipPath><clipPath id="clip41"><rect x="1118" y="192" width="2296" height="1366"/></clipPath><clipPath id="clip42"><rect x="1118" y="192" width="2296" height="1366"/></clipPath><clipPath id="clip43"><rect x="1118" y="192" width="2296" height="1366"/></clipPath><clipPath id="clip44"><rect x="1118" y="192" width="2296" height="1366"/></clipPath><clipPath id="clip45"><rect x="1118" y="192" width="2296" height="1366"/></clipPath><clipPath id="clip46"><rect x="1118" y="192" width="2296" height="1366"/></clipPath><clipPath id="clip47"><rect x="1118" y="192" width="2296" height="1366"/></clipPath><clipPath id="clip48"><rect x="1118" y="192" width="2296" height="1366"/></clipPath><clipPath id="clip49"><rect x="1118" y="192" width="2296" height="1366"/></clipPath><clipPath id="clip50"><rect x="1118" y="192" width="2296" height="1366"/></clipPath><clipPath id="clip51"><rect x="1118" y="192" width="2296" height="1366"/></clipPath></defs><g clip-path="url(#clip0)" transform="translate(-1113 -187)"><rect x="1118" y="193" width="2297" height="1365" fill="#FFFFFF" fill-opacity="1"/><g clip-path="url(#clip1)"><path d="M1249.5 1084.54 3172.5 1084.54M1249.5 964.532 3172.5 964.532M1249.5 844.528 3172.5 844.528M1249.5 723.524 3172.5 723.524M1249.5 603.52 3172.5 603.52M1249.5 482.516 3172.5 482.516M1249.5 362.5 3172.5 362.5" stroke="#D9D9D9" stroke-width="3.4375" stroke-linecap="butt" stroke-linejoin="round" stroke-miterlimit="10" stroke-opacity="1" fill="none" fill-rule="evenodd"/></g><g clip-path="url(#clip2)"><path d="M1267.04 1172.04 1283.04 1172.04 1283.04 1205 1267.04 1205ZM1319.04 1198.04 1335.04 1198.04 1335.04 1205 1319.04 1205ZM1371.05 1200.04 1387.05 1200.04 1387.05 1205 1371.05 1205ZM1423.05 1193.04 1439.05 1193.04 1439.05 1205 1423.05 1205ZM1475.05 1186.04 1491.05 1186.04 1491.05 1205 1475.05 1205ZM1527.05 1167.04 1543.05 1167.04 1543.05 1205 1527.05 1205ZM1579.05 1191.04 1595.05 1191.04 1595.05 1205 1579.05 1205ZM1631.05 1200.04 1647.05 1200.04 1647.05 1205 1631.05 1205ZM1683.06 1200.04 1699.06 1200.04 1699.06 1205 1683.06 1205ZM1735.06 1191.04 1751.06 1191.04 1751.06 1205 1735.06 1205ZM1787.06 1198.04 1803.06 1198.04 1803.06 1205 1787.06 1205ZM1839.06 1160.04 1855.06 1160.04 1855.06 1205 1839.06 1205ZM1891.06 1191.04 1907.06 1191.04 1907.06 1205 1891.06 1205ZM1943.06 1200.04 1959.06 1200.04 1959.06 1205 1943.06 1205ZM1994.07 1188.04 2011.07 1188.04 2011.07 1205 1994.07 1205ZM2046.07 1143.04 2063.07 1143.04 2063.07 1205 2046.07 1205ZM2098.07 1198.04 2115.07 1198.04 2115.07 1205 2098.07 1205ZM2150.07 1191.04 2167.07 1191.04 2167.07 1205 2150.07 1205ZM2202.07 1193.04 2219.07 1193.04 2219.07 1205 2202.07 1205ZM2254.07 1128.04 2271.07 1128.04 2271.07 1205 2254.07 1205ZM2306.08 1193.04 2323.08 1193.04 2323.08 1205 2306.08 1205ZM2358.08 449.015 2375.08 449.015 2375.08 1205 2358.08 1205ZM2410.08 1200.04 2427.08 1200.04 2427.08 1205 2410.08 1205ZM2462.08 1198.04 2479.08 1198.04 2479.08 1205 2462.08 1205ZM2514.08 1181.04 2530.08 1181.04 2530.08 1205 2514.08 1205ZM2566.08 1200.04 2582.08 1200.04 2582.08 1205 2566.08 1205ZM2618.09 1191.04 2634.09 1191.04 2634.09 1205 2618.09 1205ZM2670.09 1203.04 2686.09 1203.04 2686.09 1205 2670.09 1205ZM2722.09 1198.04 2738.09 1198.04 2738.09 1205 2722.09 1205ZM2774.09 1160.04 2790.09 1160.04 2790.09 1205 2774.09 1205ZM2826.09 1167.04 2842.09 1167.04 2842.09 1205 2826.09 1205ZM2878.09 1188.04 2894.09 1188.04 2894.09 1205 2878.09 1205ZM2930.1 1196.04 2946.1 1196.04 2946.1 1205 2930.1 1205ZM2982.1 1181.04 2998.1 1181.04 2998.1 1205 2982.1 1205ZM3034.1 1179.04 3050.1 1179.04 3050.1 1205 3034.1 1205ZM3086.1 1164.04 3102.1 1164.04 3102.1 1205 3086.1 1205ZM3138.1 1203.04 3154.1 1203.04 3154.1 1205 3138.1 1205Z" fill="#4472C4" fill-rule="evenodd" fill-opacity="1"/></g><g clip-path="url(#clip3)"><path d="M1249.5 1205.5 3172.5 1205.5" stroke="#D9D9D9" stroke-width="3.4375" stroke-linecap="butt" stroke-linejoin="round" stroke-miterlimit="10" stroke-opacity="1" fill="none" fill-rule="evenodd"/></g><g clip-path="url(#clip4)"><text fill="#595959" fill-opacity="1" font-family="Calibri,Calibri_MSFontService,sans-serif" font-style="normal" font-variant="normal" font-weight="400" font-stretch="normal" font-size="41" text-anchor="start" direction="ltr" writing-mode="lr-tb" unicode-bidi="normal" text-decoration="none" transform="matrix(1 0 0 1 1189.92 1215)">0</text></g><g clip-path="url(#clip5)"><text fill="#595959" fill-opacity="1" font-family="Calibri,Calibri_MSFontService,sans-serif" font-style="normal" font-variant="normal" font-weight="400" font-stretch="normal" font-size="41" text-anchor="start" direction="ltr" writing-mode="lr-tb" unicode-bidi="normal" text-decoration="none" transform="matrix(1 0 0 1 1169.02 1095)">50</text></g><g clip-path="url(#clip6)"><text fill="#595959" fill-opacity="1" font-family="Calibri,Calibri_MSFontService,sans-serif" font-style="normal" font-variant="normal" font-weight="400" font-stretch="normal" font-size="41" text-anchor="start" direction="ltr" writing-mode="lr-tb" unicode-bidi="normal" text-decoration="none" transform="matrix(1 0 0 1 1148.12 975)">100</text></g><g clip-path="url(#clip7)"><text fill="#595959" fill-opacity="1" font-family="Calibri,Calibri_MSFontService,sans-serif" font-style="normal" font-variant="normal" font-weight="400" font-stretch="normal" font-size="41" text-anchor="start" direction="ltr" writing-mode="lr-tb" unicode-bidi="normal" text-decoration="none" transform="matrix(1 0 0 1 1148.12 854)">150</text></g><g clip-path="url(#clip8)"><text fill="#595959" fill-opacity="1" font-family="Calibri,Calibri_MSFontService,sans-serif" font-style="normal" font-variant="normal" font-weight="400" font-stretch="normal" font-size="41" text-anchor="start" direction="ltr" writing-mode="lr-tb" unicode-bidi="normal" text-decoration="none" transform="matrix(1 0 0 1 1148.12 734)">200</text></g><g clip-path="url(#clip9)"><text fill="#595959" fill-opacity="1" font-family="Calibri,Calibri_MSFontService,sans-serif" font-style="normal" font-variant="normal" font-weight="400" font-stretch="normal" font-size="41" text-anchor="start" direction="ltr" writing-mode="lr-tb" unicode-bidi="normal" text-decoration="none" transform="matrix(1 0 0 1 1148.12 613)">250</text></g><g clip-path="url(#clip10)"><text fill="#595959" fill-opacity="1" font-family="Calibri,Calibri_MSFontService,sans-serif" font-style="normal" font-variant="normal" font-weight="400" font-stretch="normal" font-size="41" text-anchor="start" direction="ltr" writing-mode="lr-tb" unicode-bidi="normal" text-decoration="none" transform="matrix(1 0 0 1 1148.12 493)">300</text></g><g clip-path="url(#clip11)"><text fill="#595959" fill-opacity="1" font-family="Calibri,Calibri_MSFontService,sans-serif" font-style="normal" font-variant="normal" font-weight="400" font-stretch="normal" font-size="41" text-anchor="start" direction="ltr" writing-mode="lr-tb" unicode-bidi="normal" text-decoration="none" transform="matrix(1 0 0 1 1148.12 373)">350</text></g><g clip-path="url(#clip12)"><text fill="#595959" fill-opacity="1" font-family="Calibri,Calibri_MSFontService,sans-serif" font-style="normal" font-variant="normal" font-weight="400" font-stretch="normal" font-size="41" text-anchor="start" direction="ltr" writing-mode="lr-tb" unicode-bidi="normal" text-decoration="none" transform="matrix(6.12323e-17 -1 1 6.12323e-17 1288.9 1402)">animation</text></g><g clip-path="url(#clip13)"><text fill="#595959" fill-opacity="1" font-family="Calibri,Calibri_MSFontService,sans-serif" font-style="normal" font-variant="normal" font-weight="400" font-stretch="normal" font-size="41" text-anchor="start" direction="ltr" writing-mode="lr-tb" unicode-bidi="normal" text-decoration="none" transform="matrix(6.12323e-17 -1 1 6.12323e-17 1340.88 1389)">art books</text></g><g clip-path="url(#clip14)"><text fill="#595959" fill-opacity="1" font-family="Calibri,Calibri_MSFontService,sans-serif" font-style="normal" font-variant="normal" font-weight="400" font-stretch="normal" font-size="41" text-anchor="start" direction="ltr" writing-mode="lr-tb" unicode-bidi="normal" text-decoration="none" transform="matrix(6.12323e-17 -1 1 6.12323e-17 1392.85 1502)">children's books</text></g><g clip-path="url(#clip15)"><text fill="#595959" fill-opacity="1" font-family="Calibri,Calibri_MSFontService,sans-serif" font-style="normal" font-variant="normal" font-weight="400" font-stretch="normal" font-size="41" text-anchor="start" direction="ltr" writing-mode="lr-tb" unicode-bidi="normal" text-decoration="none" transform="matrix(6.12323e-17 -1 1 6.12323e-17 1444.82 1474)">classical music</text></g><g clip-path="url(#clip16)"><text fill="#595959" fill-opacity="1" font-family="Calibri,Calibri_MSFontService,sans-serif" font-style="normal" font-variant="normal" font-weight="400" font-stretch="normal" font-size="41" text-anchor="start" direction="ltr" writing-mode="lr-tb" unicode-bidi="normal" text-decoration="none" transform="matrix(6.12323e-17 -1 1 6.12323e-17 1496.8 1456)">documentary</text></g><g clip-path="url(#clip17)"><text fill="#595959" fill-opacity="1" font-family="Calibri,Calibri_MSFontService,sans-serif" font-style="normal" font-variant="normal" font-weight="400" font-stretch="normal" font-size="41" text-anchor="start" direction="ltr" writing-mode="lr-tb" unicode-bidi="normal" text-decoration="none" transform="matrix(6.12323e-17 -1 1 6.12323e-17 1548.77 1340)">drama</text></g><g clip-path="url(#clip18)"><text fill="#595959" fill-opacity="1" font-family="Calibri,Calibri_MSFontService,sans-serif" font-style="normal" font-variant="normal" font-weight="400" font-stretch="normal" font-size="41" text-anchor="start" direction="ltr" writing-mode="lr-tb" unicode-bidi="normal" text-decoration="none" transform="matrix(6.12323e-17 -1 1 6.12323e-17 1600.74 1505)">electronic music</text></g><g clip-path="url(#clip19)"><text fill="#595959" fill-opacity="1" font-family="Calibri,Calibri_MSFontService,sans-serif" font-style="normal" font-variant="normal" font-weight="400" font-stretch="normal" font-size="41" text-anchor="start" direction="ltr" writing-mode="lr-tb" unicode-bidi="normal" text-decoration="none" transform="matrix(6.12323e-17 -1 1 6.12323e-17 1652.72 1309)">faith</text></g><g clip-path="url(#clip20)"><text fill="#595959" fill-opacity="1" font-family="Calibri,Calibri_MSFontService,sans-serif" font-style="normal" font-variant="normal" font-weight="400" font-stretch="normal" font-size="41" text-anchor="start" direction="ltr" writing-mode="lr-tb" unicode-bidi="normal" text-decoration="none" transform="matrix(6.12323e-17 -1 1 6.12323e-17 1704.69 1338)">fiction</text></g><g clip-path="url(#clip21)"><text fill="#595959" fill-opacity="1" font-family="Calibri,Calibri_MSFontService,sans-serif" font-style="normal" font-variant="normal" font-weight="400" font-stretch="normal" font-size="41" text-anchor="start" direction="ltr" writing-mode="lr-tb" unicode-bidi="normal" text-decoration="none" transform="matrix(6.12323e-17 -1 1 6.12323e-17 1756.66 1421)">food trucks</text></g><g clip-path="url(#clip22)"><text fill="#595959" fill-opacity="1" font-family="Calibri,Calibri_MSFontService,sans-serif" font-style="normal" font-variant="normal" font-weight="400" font-stretch="normal" font-size="41" text-anchor="start" direction="ltr" writing-mode="lr-tb" unicode-bidi="normal" text-decoration="none" transform="matrix(6.12323e-17 -1 1 6.12323e-17 1808.63 1362)">gadgets</text></g><g clip-path="url(#clip23)"><text fill="#595959" fill-opacity="1" font-family="Calibri,Calibri_MSFontService,sans-serif" font-style="normal" font-variant="normal" font-weight="400" font-stretch="normal" font-size="41" text-anchor="start" direction="ltr" writing-mode="lr-tb" unicode-bidi="normal" text-decoration="none" transform="matrix(6.12323e-17 -1 1 6.12323e-17 1860.61 1393)">hardware</text></g><g clip-path="url(#clip24)"><text fill="#595959" fill-opacity="1" font-family="Calibri,Calibri_MSFontService,sans-serif" font-style="normal" font-variant="normal" font-weight="400" font-stretch="normal" font-size="41" text-anchor="start" direction="ltr" writing-mode="lr-tb" unicode-bidi="normal" text-decoration="none" transform="matrix(6.12323e-17 -1 1 6.12323e-17 1912.58 1294)">jazz</text></g><g clip-path="url(#clip25)"><text fill="#595959" fill-opacity="1" font-family="Calibri,Calibri_MSFontService,sans-serif" font-style="normal" font-variant="normal" font-weight="400" font-stretch="normal" font-size="41" text-anchor="start" direction="ltr" writing-mode="lr-tb" unicode-bidi="normal" text-decoration="none" transform="matrix(6.12323e-17 -1 1 6.12323e-17 1964.55 1328)">metal</text></g><g clip-path="url(#clip26)"><text fill="#595959" fill-opacity="1" font-family="Calibri,Calibri_MSFontService,sans-serif" font-style="normal" font-variant="normal" font-weight="400" font-stretch="normal" font-size="41" text-anchor="start" direction="ltr" writing-mode="lr-tb" unicode-bidi="normal" text-decoration="none" transform="matrix(6.12323e-17 -1 1 6.12323e-17 2016.53 1465)">mobile games</text></g><g clip-path="url(#clip27)"><text fill="#595959" fill-opacity="1" font-family="Calibri,Calibri_MSFontService,sans-serif" font-style="normal" font-variant="normal" font-weight="400" font-stretch="normal" font-size="41" text-anchor="start" direction="ltr" writing-mode="lr-tb" unicode-bidi="normal" text-decoration="none" transform="matrix(6.12323e-17 -1 1 6.12323e-17 2068.5 1358)">musical</text></g><g clip-path="url(#clip28)"><text fill="#595959" fill-opacity="1" font-family="Calibri,Calibri_MSFontService,sans-serif" font-style="normal" font-variant="normal" font-weight="400" font-stretch="normal" font-size="41" text-anchor="start" direction="ltr" writing-mode="lr-tb" unicode-bidi="normal" text-decoration="none" transform="matrix(6.12323e-17 -1 1 6.12323e-17 2120.47 1343)">nature</text></g><g clip-path="url(#clip29)"><text fill="#595959" fill-opacity="1" font-family="Calibri,Calibri_MSFontService,sans-serif" font-style="normal" font-variant="normal" font-weight="400" font-stretch="normal" font-size="41" text-anchor="start" direction="ltr" writing-mode="lr-tb" unicode-bidi="normal" text-decoration="none" transform="matrix(6.12323e-17 -1 1 6.12323e-17 2172.45 1403)">nonfiction</text></g><g clip-path="url(#clip30)"><text fill="#595959" fill-opacity="1" font-family="Calibri,Calibri_MSFontService,sans-serif" font-style="normal" font-variant="normal" font-weight="400" font-stretch="normal" font-size="41" text-anchor="start" direction="ltr" writing-mode="lr-tb" unicode-bidi="normal" text-decoration="none" transform="matrix(6.12323e-17 -1 1 6.12323e-17 2224.42 1347)">people</text></g><g clip-path="url(#clip31)"><text fill="#595959" fill-opacity="1" font-family="Calibri,Calibri_MSFontService,sans-serif" font-style="normal" font-variant="normal" font-weight="400" font-stretch="normal" font-size="41" text-anchor="start" direction="ltr" writing-mode="lr-tb" unicode-bidi="normal" text-decoration="none" transform="matrix(6.12323e-17 -1 1 6.12323e-17 2276.39 1432)">photobooks</text></g><g clip-path="url(#clip32)"><text fill="#595959" fill-opacity="1" font-family="Calibri,Calibri_MSFontService,sans-serif" font-style="normal" font-variant="normal" font-weight="400" font-stretch="normal" font-size="41" text-anchor="start" direction="ltr" writing-mode="lr-tb" unicode-bidi="normal" text-decoration="none" transform="matrix(6.12323e-17 -1 1 6.12323e-17 2328.37 1337)">places</text></g><g clip-path="url(#clip33)"><text fill="#595959" fill-opacity="1" font-family="Calibri,Calibri_MSFontService,sans-serif" font-style="normal" font-variant="normal" font-weight="400" font-stretch="normal" font-size="41" text-anchor="start" direction="ltr" writing-mode="lr-tb" unicode-bidi="normal" text-decoration="none" transform="matrix(6.12323e-17 -1 1 6.12323e-17 2380.34 1317)">plays</text></g><g clip-path="url(#clip34)"><text fill="#595959" fill-opacity="1" font-family="Calibri,Calibri_MSFontService,sans-serif" font-style="normal" font-variant="normal" font-weight="400" font-stretch="normal" font-size="41" text-anchor="start" direction="ltr" writing-mode="lr-tb" unicode-bidi="normal" text-decoration="none" transform="matrix(6.12323e-17 -1 1 6.12323e-17 2432.31 1297)">pop</text></g><g clip-path="url(#clip35)"><text fill="#595959" fill-opacity="1" font-family="Calibri,Calibri_MSFontService,sans-serif" font-style="normal" font-variant="normal" font-weight="400" font-stretch="normal" font-size="41" text-anchor="start" direction="ltr" writing-mode="lr-tb" unicode-bidi="normal" text-decoration="none" transform="matrix(6.12323e-17 -1 1 6.12323e-17 2484.28 1424)">restaurants</text></g><g clip-path="url(#clip36)"><text fill="#595959" fill-opacity="1" font-family="Calibri,Calibri_MSFontService,sans-serif" font-style="normal" font-variant="normal" font-weight="400" font-stretch="normal" font-size="41" text-anchor="start" direction="ltr" writing-mode="lr-tb" unicode-bidi="normal" text-decoration="none" transform="matrix(6.12323e-17 -1 1 6.12323e-17 2536.26 1304)">rock</text></g><g clip-path="url(#clip37)"><text fill="#595959" fill-opacity="1" font-family="Calibri,Calibri_MSFontService,sans-serif" font-style="normal" font-variant="normal" font-weight="400" font-stretch="normal" font-size="41" text-anchor="start" direction="ltr" writing-mode="lr-tb" unicode-bidi="normal" text-decoration="none" transform="matrix(6.12323e-17 -1 1 6.12323e-17 2588.23 1470)">science fiction</text></g><g clip-path="url(#clip38)"><text fill="#595959" fill-opacity="1" font-family="Calibri,Calibri_MSFontService,sans-serif" font-style="normal" font-variant="normal" font-weight="400" font-stretch="normal" font-size="41" text-anchor="start" direction="ltr" writing-mode="lr-tb" unicode-bidi="normal" text-decoration="none" transform="matrix(6.12323e-17 -1 1 6.12323e-17 2640.2 1335)">shorts</text></g><g clip-path="url(#clip39)"><text fill="#595959" fill-opacity="1" font-family="Calibri,Calibri_MSFontService,sans-serif" font-style="normal" font-variant="normal" font-weight="400" font-stretch="normal" font-size="41" text-anchor="start" direction="ltr" writing-mode="lr-tb" unicode-bidi="normal" text-decoration="none" transform="matrix(6.12323e-17 -1 1 6.12323e-17 2692.18 1423)">small batch</text></g><g clip-path="url(#clip40)"><text fill="#595959" fill-opacity="1" font-family="Calibri,Calibri_MSFontService,sans-serif" font-style="normal" font-variant="normal" font-weight="400" font-stretch="normal" font-size="41" text-anchor="start" direction="ltr" writing-mode="lr-tb" unicode-bidi="normal" text-decoration="none" transform="matrix(6.12323e-17 -1 1 6.12323e-17 2744.15 1529)">space exploration</text></g><g clip-path="url(#clip41)"><text fill="#595959" fill-opacity="1" font-family="Calibri,Calibri_MSFontService,sans-serif" font-style="normal" font-variant="normal" font-weight="400" font-stretch="normal" font-size="41" text-anchor="start" direction="ltr" writing-mode="lr-tb" unicode-bidi="normal" text-decoration="none" transform="matrix(6.12323e-17 -1 1 6.12323e-17 2796.12 1343)">spaces</text></g><g clip-path="url(#clip42)"><text fill="#595959" fill-opacity="1" font-family="Calibri,Calibri_MSFontService,sans-serif" font-style="normal" font-variant="normal" font-weight="400" font-stretch="normal" font-size="41" text-anchor="start" direction="ltr" writing-mode="lr-tb" unicode-bidi="normal" text-decoration="none" transform="matrix(6.12323e-17 -1 1 6.12323e-17 2848.1 1492)">tabletop games</text></g><g clip-path="url(#clip43)"><text fill="#595959" fill-opacity="1" font-family="Calibri,Calibri_MSFontService,sans-serif" font-style="normal" font-variant="normal" font-weight="400" font-stretch="normal" font-size="41" text-anchor="start" direction="ltr" writing-mode="lr-tb" unicode-bidi="normal" text-decoration="none" transform="matrix(6.12323e-17 -1 1 6.12323e-17 2900.07 1393)">television</text></g><g clip-path="url(#clip44)"><text fill="#595959" fill-opacity="1" font-family="Calibri,Calibri_MSFontService,sans-serif" font-style="normal" font-variant="normal" font-weight="400" font-stretch="normal" font-size="41" text-anchor="start" direction="ltr" writing-mode="lr-tb" unicode-bidi="normal" text-decoration="none" transform="matrix(6.12323e-17 -1 1 6.12323e-17 2952.04 1429)">translations</text></g><g clip-path="url(#clip45)"><text fill="#595959" fill-opacity="1" font-family="Calibri,Calibri_MSFontService,sans-serif" font-style="normal" font-variant="normal" font-weight="400" font-stretch="normal" font-size="41" text-anchor="start" direction="ltr" writing-mode="lr-tb" unicode-bidi="normal" text-decoration="none" transform="matrix(6.12323e-17 -1 1 6.12323e-17 3004.01 1442)">video games</text></g><g clip-path="url(#clip46)"><text fill="#595959" fill-opacity="1" font-family="Calibri,Calibri_MSFontService,sans-serif" font-style="normal" font-variant="normal" font-weight="400" font-stretch="normal" font-size="41" text-anchor="start" direction="ltr" writing-mode="lr-tb" unicode-bidi="normal" text-decoration="none" transform="matrix(6.12323e-17 -1 1 6.12323e-17 3055.99 1403)">wearables</text></g><g clip-path="url(#clip47)"><text fill="#595959" fill-opacity="1" font-family="Calibri,Calibri_MSFontService,sans-serif" font-style="normal" font-variant="normal" font-weight="400" font-stretch="normal" font-size="41" text-anchor="start" direction="ltr" writing-mode="lr-tb" unicode-bidi="normal" text-decoration="none" transform="matrix(6.12323e-17 -1 1 6.12323e-17 3107.96 1303)">web</text></g><g clip-path="url(#clip48)"><text fill="#595959" fill-opacity="1" font-family="Calibri,Calibri_MSFontService,sans-serif" font-style="normal" font-variant="normal" font-weight="400" font-stretch="normal" font-size="41" text-anchor="start" direction="ltr" writing-mode="lr-tb" unicode-bidi="normal" text-decoration="none" transform="matrix(6.12323e-17 -1 1 6.12323e-17 3159.93 1435)">world music</text></g><g clip-path="url(#clip49)"><text fill="#595959" fill-opacity="1" font-family="Calibri,Calibri_MSFontService,sans-serif" font-style="normal" font-variant="normal" font-weight="400" font-stretch="normal" font-size="64" text-anchor="start" direction="ltr" writing-mode="lr-tb" unicode-bidi="normal" text-decoration="none" transform="matrix(1 0 0 1 2203.67 288)">Total</text></g><g clip-path="url(#clip50)"><rect x="3244" y="926" width="23" height="22" fill="#4472C4" fill-opacity="1"/></g><g clip-path="url(#clip51)"><text fill="#595959" fill-opacity="1" font-family="Calibri,Calibri_MSFontService,sans-serif" font-style="normal" font-variant="normal" font-weight="400" font-stretch="normal" font-size="41" text-anchor="start" direction="ltr" writing-mode="lr-tb" unicode-bidi="normal" text-decoration="none" transform="matrix(1 0 0 1 3276.42 947)">Total</text></g><rect x="1118.5" y="193.5" width="2297" height="1365" stroke="#D9D9D9" stroke-width="3.4375" stroke-linecap="butt" stroke-linejoin="round" stroke-miterlimit="10" stroke-opacity="1" fill="none"/></g></svg>