<svg width="2058" height="1366" xmlns="http://www.w3.org/2000/svg" xmlns:xlink="http://www.w3.org/1999/xlink" overflow="hidden"><defs><clipPath id="clip0"><rect x="1952" y="123" width="2058" height="1366"/></clipPath><clipPath id="clip1"><rect x="1957" y="126" width="2048" height="1359"/></clipPath><clipPath id="clip2"><rect x="2108" y="176" width="1574" height="1067"/></clipPath><clipPath id="clip3"><rect x="2108" y="176" width="1574" height="1067"/></clipPath><clipPath id="clip4"><rect x="2108" y="176" width="1574" height="1067"/></clipPath><clipPath id="clip5"><rect x="2108" y="176" width="1574" height="1067"/></clipPath><clipPath id="clip6"><rect x="1957" y="126" width="2048" height="1359"/></clipPath><clipPath id="clip7"><rect x="1957" y="126" width="2048" height="1359"/></clipPath><clipPath id="clip8"><rect x="1957" y="126" width="2048" height="1359"/></clipPath><clipPath id="clip9"><rect x="1957" y="126" width="2048" height="1359"/></clipPath><clipPath id="clip10"><rect x="1957" y="126" width="2048" height="1359"/></clipPath><clipPath id="clip11"><rect x="1957" y="126" width="2048" height="1359"/></clipPath><clipPath id="clip12"><rect x="1957" y="126" width="2048" height="1359"/></clipPath><clipPath id="clip13"><rect x="1957" y="126" width="2048" height="1359"/></clipPath><clipPath id="clip14"><rect x="1957" y="126" width="2048" height="1359"/></clipPath><clipPath id="clip15"><rect x="1957" y="126" width="2048" height="1359"/></clipPath><clipPath id="clip16"><rect x="1957" y="126" width="2048" height="1359"/></clipPath><clipPath id="clip17"><rect x="1957" y="126" width="2048" height="1359"/></clipPath><clipPath id="clip18"><rect x="1957" y="126" width="2048" height="1359"/></clipPath><clipPath id="clip19"><rect x="1957" y="126" width="2048" height="1359"/></clipPath><clipPath id="clip20"><rect x="1957" y="126" width="2048" height="1359"/></clipPath><clipPath id="clip21"><rect x="1957" y="126" width="2048" height="1359"/></clipPath><clipPath id="clip22"><rect x="1957" y="126" width="2048" height="1359"/></clipPath><clipPath id="clip23"><rect x="1957" y="126" width="2048" height="1359"/></clipPath><clipPath id="clip24"><rect x="1957" y="126" width="2048" height="1359"/></clipPath><clipPath id="clip25"><rect x="1957" y="126" width="2048" height="1359"/></clipPath><clipPath id="clip26"><rect x="1957" y="126" width="2048" height="1359"/></clipPath><clipPath id="clip27"><rect x="1957" y="126" width="2048" height="1359"/></clipPath><clipPath id="clip28"><rect x="1957" y="126" width="2048" height="1359"/></clipPath><clipPath id="clip29"><rect x="1957" y="126" width="2048" height="1359"/></clipPath><clipPath id="clip30"><rect x="1957" y="126" width="2048" height="1359"/></clipPath><clipPath id="clip31"><rect x="1957" y="126" width="2048" height="1359"/></clipPath><clipPath id="clip32"><rect x="1957" y="126" width="2048" height="1359"/></clipPath><clipPath id="clip33"><rect x="1957" y="126" width="2048" height="1359"/></clipPath><clipPath id="clip34"><rect x="1957" y="126" width="2048" height="1359"/></clipPath><clipPath id="clip35"><rect x="1957" y="126" width="2048" height="1359"/></clipPath></defs><g clip-path="url(#clip0)" transform="translate(-1952 -123)"><rect x="1957" y="126" width="2049" height="1359" fill="#FFFFFF" fill-opacity="1"/><g clip-path="url(#clip1)"><path d="M2108.5 1134.54 3679.5 1134.54M2108.5 1027.53 3679.5 1027.53M2108.5 921.53 3679.5 921.53M2108.5 814.527 3679.5 814.527M2108.5 708.523 3679.5 708.523M2108.5 602.52 3679.5 602.52M2108.5 495.516 3679.5 495.516M2108.5 389.513 3679.5 389.513M2108.5 282.509 3679.5 282.509M2108.5 176.5 3679.5 176.5" stroke="#D9D9D9" stroke-width="3.4375" stroke-linecap="butt" stroke-linejoin="round" stroke-miterlimit="10" stroke-opacity="1" fill="none" fill-rule="evenodd"/></g><g clip-path="url(#clip2)"><path d="M2169.07 1207.04 2223.07 1207.04 2223.07 1240 2169.07 1240ZM2343.08 1224.04 2398.08 1224.04 2398.08 1240 2343.08 1240ZM2692.09 1216.04 2747.09 1216.04 2747.09 1240 2692.09 1240ZM2866.09 1220.04 2921.1 1220.04 2921.1 1240 2866.09 1240ZM3215.11 1217.04 3270.11 1217.04 3270.11 1240 3215.11 1240ZM3390.11 1112.04 3445.11 1112.04 3445.11 1240 3390.11 1240ZM3564.12 1213.04 3619.12 1213.04 3619.12 1240 3564.12 1240Z" fill="#4472C4" fill-rule="evenodd" fill-opacity="1"/></g><g clip-path="url(#clip3)"><path d="M2169.07 1069.04 2223.07 1069.04 2223.07 1207.04 2169.07 1207.04ZM2343.08 1102.04 2398.08 1102.04 2398.08 1224.04 2343.08 1224.04ZM2517.08 1138.04 2572.08 1138.04 2572.08 1240 2517.08 1240ZM2866.09 1103.04 2921.1 1103.04 2921.1 1220.04 2866.09 1220.04ZM3041.1 1164.04 3096.1 1164.04 3096.1 1240 3041.1 1240ZM3215.11 1124.04 3270.11 1124.04 3270.11 1217.04 3215.11 1217.04ZM3390.11 965.032 3445.11 965.032 3445.11 1112.04 3390.11 1112.04ZM3564.12 841.028 3619.12 841.028 3619.12 1213.04 3564.12 1213.04Z" fill="#ED7D31" fill-rule="evenodd" fill-opacity="1"/></g><g clip-path="url(#clip4)"><path d="M2343.08 1098.04 2398.08 1098.04 2398.08 1102.04 2343.08 1102.04ZM2866.09 1085.04 2921.1 1085.04 2921.1 1103.04 2866.09 1103.04ZM3564.12 829.027 3619.12 829.027 3619.12 841.028 3564.12 841.028Z" fill="#A5A5A5" fill-rule="evenodd" fill-opacity="1"/></g><g clip-path="url(#clip5)"><path d="M2169.07 791.026 2223.07 791.026 2223.07 1069.04 2169.07 1069.04ZM2343.08 1062.03 2398.08 1062.03 2398.08 1098.04 2343.08 1098.04ZM2517.08 1083.04 2572.08 1083.04 2572.08 1138.04 2517.08 1138.04ZM2866.09 564.018 2921.1 564.018 2921.1 1085.04 2866.09 1085.04ZM3041.1 1098.04 3096.1 1098.04 3096.1 1164.04 3041.1 1164.04ZM3215.11 1051.03 3270.11 1051.03 3270.11 1124.04 3215.11 1124.04ZM3390.11 797.026 3445.11 797.026 3445.11 965.032 3390.11 965.032ZM3564.12 270.009 3619.12 270.009 3619.12 829.027 3564.12 829.027Z" fill="#FFC000" fill-rule="evenodd" fill-opacity="1"/></g><g clip-path="url(#clip6)"><path d="M2108.5 1240.5 3679.5 1240.5" stroke="#D9D9D9" stroke-width="3.4375" stroke-linecap="butt" stroke-linejoin="round" stroke-miterlimit="10" stroke-opacity="1" fill="none" fill-rule="evenodd"/></g><g clip-path="url(#clip7)"><text fill="#595959" fill-opacity="1" font-family="Calibri,Calibri_MSFontService,sans-serif" font-style="normal" font-variant="normal" font-weight="400" font-stretch="normal" font-size="41" text-anchor="start" direction="ltr" writing-mode="lr-tb" unicode-bidi="normal" text-decoration="none" transform="matrix(1 0 0 1 2049.57 1251)">0</text></g><g clip-path="url(#clip8)"><text fill="#595959" fill-opacity="1" font-family="Calibri,Calibri_MSFontService,sans-serif" font-style="normal" font-variant="normal" font-weight="400" font-stretch="normal" font-size="41" text-anchor="start" direction="ltr" writing-mode="lr-tb" unicode-bidi="normal" text-decoration="none" transform="matrix(1 0 0 1 2007.77 1144)">100</text></g><g clip-path="url(#clip9)"><text fill="#595959" fill-opacity="1" font-family="Calibri,Calibri_MSFontService,sans-serif" font-style="normal" font-variant="normal" font-weight="400" font-stretch="normal" font-size="41" text-anchor="start" direction="ltr" writing-mode="lr-tb" unicode-bidi="normal" text-decoration="none" transform="matrix(1 0 0 1 2007.77 1038)">200</text></g><g clip-path="url(#clip10)"><text fill="#595959" fill-opacity="1" font-family="Calibri,Calibri_MSFontService,sans-serif" font-style="normal" font-variant="normal" font-weight="400" font-stretch="normal" font-size="41" text-anchor="start" direction="ltr" writing-mode="lr-tb" unicode-bidi="normal" text-decoration="none" transform="matrix(1 0 0 1 2007.77 931)">300</text></g><g clip-path="url(#clip11)"><text fill="#595959" fill-opacity="1" font-family="Calibri,Calibri_MSFontService,sans-serif" font-style="normal" font-variant="normal" font-weight="400" font-stretch="normal" font-size="41" text-anchor="start" direction="ltr" writing-mode="lr-tb" unicode-bidi="normal" text-decoration="none" transform="matrix(1 0 0 1 2007.77 825)">400</text></g><g clip-path="url(#clip12)"><text fill="#595959" fill-opacity="1" font-family="Calibri,Calibri_MSFontService,sans-serif" font-style="normal" font-variant="normal" font-weight="400" font-stretch="normal" font-size="41" text-anchor="start" direction="ltr" writing-mode="lr-tb" unicode-bidi="normal" text-decoration="none" transform="matrix(1 0 0 1 2007.77 719)">500</text></g><g clip-path="url(#clip13)"><text fill="#595959" fill-opacity="1" font-family="Calibri,Calibri_MSFontService,sans-serif" font-style="normal" font-variant="normal" font-weight="400" font-stretch="normal" font-size="41" text-anchor="start" direction="ltr" writing-mode="lr-tb" unicode-bidi="normal" text-decoration="none" transform="matrix(1 0 0 1 2007.77 612)">600</text></g><g clip-path="url(#clip14)"><text fill="#595959" fill-opacity="1" font-family="Calibri,Calibri_MSFontService,sans-serif" font-style="normal" font-variant="normal" font-weight="400" font-stretch="normal" font-size="41" text-anchor="start" direction="ltr" writing-mode="lr-tb" unicode-bidi="normal" text-decoration="none" transform="matrix(1 0 0 1 2007.77 506)">700</text></g><g clip-path="url(#clip15)"><text fill="#595959" fill-opacity="1" font-family="Calibri,Calibri_MSFontService,sans-serif" font-style="normal" font-variant="normal" font-weight="400" font-stretch="normal" font-size="41" text-anchor="start" direction="ltr" writing-mode="lr-tb" unicode-bidi="normal" text-decoration="none" transform="matrix(1 0 0 1 2007.77 399)">800</text></g><g clip-path="url(#clip16)"><text fill="#595959" fill-opacity="1" font-family="Calibri,Calibri_MSFontService,sans-serif" font-style="normal" font-variant="normal" font-weight="400" font-stretch="normal" font-size="41" text-anchor="start" direction="ltr" writing-mode="lr-tb" unicode-bidi="normal" text-decoration="none" transform="matrix(1 0 0 1 2007.77 293)">900</text></g><g clip-path="url(#clip17)"><text fill="#595959" fill-opacity="1" font-family="Calibri,Calibri_MSFontService,sans-serif" font-style="normal" font-variant="normal" font-weight="400" font-stretch="normal" font-size="41" text-anchor="start" direction="ltr" writing-mode="lr-tb" unicode-bidi="normal" text-decoration="none" transform="matrix(1 0 0 1 1986.87 187)">1000</text></g><g clip-path="url(#clip18)"><text fill="#595959" fill-opacity="1" font-family="Calibri,Calibri_MSFontService,sans-serif" font-style="normal" font-variant="normal" font-weight="400" font-stretch="normal" font-size="41" text-anchor="start" direction="ltr" writing-mode="lr-tb" unicode-bidi="normal" text-decoration="none" transform="matrix(0.707107 -0.707107 0.707107 0.707107 2061.99 1438)">film &amp; video</text></g><g clip-path="url(#clip19)"><text fill="#595959" fill-opacity="1" font-family="Calibri,Calibri_MSFontService,sans-serif" font-style="normal" font-variant="normal" font-weight="400" font-stretch="normal" font-size="41" text-anchor="start" direction="ltr" writing-mode="lr-tb" unicode-bidi="normal" text-decoration="none" transform="matrix(0.707107 -0.707107 0.707107 0.707107 2325.25 1349)">food</text></g><g clip-path="url(#clip20)"><text fill="#595959" fill-opacity="1" font-family="Calibri,Calibri_MSFontService,sans-serif" font-style="normal" font-variant="normal" font-weight="400" font-stretch="normal" font-size="41" text-anchor="start" direction="ltr" writing-mode="lr-tb" unicode-bidi="normal" text-decoration="none" transform="matrix(0.707107 -0.707107 0.707107 0.707107 2477.78 1371)">games</text></g><g clip-path="url(#clip21)"><text fill="#595959" fill-opacity="1" font-family="Calibri,Calibri_MSFontService,sans-serif" font-style="normal" font-variant="normal" font-weight="400" font-stretch="normal" font-size="41" text-anchor="start" direction="ltr" writing-mode="lr-tb" unicode-bidi="normal" text-decoration="none" transform="matrix(0.707107 -0.707107 0.707107 0.707107 2603.92 1420)">journalism</text></g><g clip-path="url(#clip22)"><text fill="#595959" fill-opacity="1" font-family="Calibri,Calibri_MSFontService,sans-serif" font-style="normal" font-variant="normal" font-weight="400" font-stretch="normal" font-size="41" text-anchor="start" direction="ltr" writing-mode="lr-tb" unicode-bidi="normal" text-decoration="none" transform="matrix(0.707107 -0.707107 0.707107 0.707107 2834.59 1363)">music</text></g><g clip-path="url(#clip23)"><text fill="#595959" fill-opacity="1" font-family="Calibri,Calibri_MSFontService,sans-serif" font-style="normal" font-variant="normal" font-weight="400" font-stretch="normal" font-size="41" text-anchor="start" direction="ltr" writing-mode="lr-tb" unicode-bidi="normal" text-decoration="none" transform="matrix(0.707107 -0.707107 0.707107 0.707107 2925.2 1447)">photography</text></g><g clip-path="url(#clip24)"><text fill="#595959" fill-opacity="1" font-family="Calibri,Calibri_MSFontService,sans-serif" font-style="normal" font-variant="normal" font-weight="400" font-stretch="normal" font-size="41" text-anchor="start" direction="ltr" writing-mode="lr-tb" unicode-bidi="normal" text-decoration="none" transform="matrix(0.707107 -0.707107 0.707107 0.707107 3130.74 1416)">publishing</text></g><g clip-path="url(#clip25)"><text fill="#595959" fill-opacity="1" font-family="Calibri,Calibri_MSFontService,sans-serif" font-style="normal" font-variant="normal" font-weight="400" font-stretch="normal" font-size="41" text-anchor="start" direction="ltr" writing-mode="lr-tb" unicode-bidi="normal" text-decoration="none" transform="matrix(0.707107 -0.707107 0.707107 0.707107 3295.41 1426)">technology</text></g><g clip-path="url(#clip26)"><text fill="#595959" fill-opacity="1" font-family="Calibri,Calibri_MSFontService,sans-serif" font-style="normal" font-variant="normal" font-weight="400" font-stretch="normal" font-size="41" text-anchor="start" direction="ltr" writing-mode="lr-tb" unicode-bidi="normal" text-decoration="none" transform="matrix(0.707107 -0.707107 0.707107 0.707107 3513.49 1382)">theater</text></g><g clip-path="url(#clip27)"><text fill="#595959" fill-opacity="1" font-family="Calibri,Calibri_MSFontService,sans-serif" font-style="normal" font-variant="normal" font-weight="400" font-stretch="normal" font-size="64" text-anchor="start" direction="ltr" writing-mode="lr-tb" unicode-bidi="normal" text-decoration="none" transform="matrix(1 0 0 1 2623.48 249)">Parent Category Outcomes</text></g><g clip-path="url(#clip28)"><rect x="3751" y="680" width="23" height="23.0001" fill="#FFC000" fill-opacity="1"/></g><g clip-path="url(#clip29)"><text fill="#595959" fill-opacity="1" font-family="Calibri,Calibri_MSFontService,sans-serif" font-style="normal" font-variant="normal" font-weight="400" font-stretch="normal" font-size="41" text-anchor="start" direction="ltr" writing-mode="lr-tb" unicode-bidi="normal" text-decoration="none" transform="matrix(1 0 0 1 3783.33 701)">successful</text></g><g clip-path="url(#clip30)"><rect x="3751" y="757" width="23" height="23.0001" fill="#A5A5A5" fill-opacity="1"/></g><g clip-path="url(#clip31)"><text fill="#595959" fill-opacity="1" font-family="Calibri,Calibri_MSFontService,sans-serif" font-style="normal" font-variant="normal" font-weight="400" font-stretch="normal" font-size="41" text-anchor="start" direction="ltr" writing-mode="lr-tb" unicode-bidi="normal" text-decoration="none" transform="matrix(1 0 0 1 3783.33 779)">live</text></g><g clip-path="url(#clip32)"><rect x="3751" y="835" width="23" height="22" fill="#ED7D31" fill-opacity="1"/></g><g clip-path="url(#clip33)"><text fill="#595959" fill-opacity="1" font-family="Calibri,Calibri_MSFontService,sans-serif" font-style="normal" font-variant="normal" font-weight="400" font-stretch="normal" font-size="41" text-anchor="start" direction="ltr" writing-mode="lr-tb" unicode-bidi="normal" text-decoration="none" transform="matrix(1 0 0 1 3783.33 856)">failed</text></g><g clip-path="url(#clip34)"><rect x="3751" y="912" width="23" height="23.0001" fill="#4472C4" fill-opacity="1"/></g><g clip-path="url(#clip35)"><text fill="#595959" fill-opacity="1" font-family="Calibri,Calibri_MSFontService,sans-serif" font-style="normal" font-variant="normal" font-weight="400" font-stretch="normal" font-size="41" text-anchor="start" direction="ltr" writing-mode="lr-tb" unicode-bidi="normal" text-decoration="none" transform="matrix(1 0 0 1 3783.33 933)">canceled</text></g><rect x="1957.5" y="126.5" width="2049" height="1359" stroke="#D9D9D9" stroke-width="3.4375" stroke-linecap="butt" stroke-linejoin="round" stroke-miterlimit="10" stroke-opacity="1" fill="none"/></g></svg>